HIERARCHY
ROOT root
{
	OFFSET 0.000000 0.000000 0.000000
	CHANNELS 6 Xposition Yposition Zposition Zrotation Yrotation Xrotation
	JOINT lhip
	{
		OFFSET 0.058581 -0.082280 -0.017664
		CHANNELS 3 Zrotation Yrotation Xrotation
		JOINT lknee
		{
			OFFSET 0.043451 -0.386469 0.008037
			CHANNELS 3 Zrotation Yrotation Xrotation
			JOINT lankle
			{
				OFFSET -0.014790 -0.426874 -0.037428
				CHANNELS 3 Zrotation Yrotation Xrotation
				JOINT ltoe
				{
					OFFSET 0.041054 -0.060286 0.122042
					CHANNELS 3 Zrotation Yrotation Xrotation
					End Site
					{
						OFFSET 0.000000 0.000000 0.000000
					}
				}
			}
		}
	}
	JOINT rhip
	{
		OFFSET -0.060310 -0.090513 -0.013543
		CHANNELS 3 Zrotation Yrotation Xrotation
		JOINT rknee
		{
			OFFSET -0.043257 -0.383688 -0.004843
			CHANNELS 3 Zrotation Yrotation Xrotation
			JOINT rankle
			{
				OFFSET 0.019056 -0.420046 -0.034562
				CHANNELS 3 Zrotation Yrotation Xrotation
				JOINT rtoe
				{
					OFFSET -0.034840 -0.062106 0.130323
					CHANNELS 3 Zrotation Yrotation Xrotation
					End Site
					{
						OFFSET 0.000000 0.000000 0.000000
					}
				}
			}
		}
	}
	JOINT lowerback
	{
		OFFSET 0.004439 0.124404 -0.038385
		CHANNELS 3 Zrotation Yrotation Xrotation
		JOINT upperback
		{
			OFFSET 0.004488 0.137956 0.026820
			CHANNELS 3 Zrotation Yrotation Xrotation
			JOINT chest
			{
				OFFSET -0.002265 0.056032 0.002855
				CHANNELS 3 Zrotation Yrotation Xrotation
				JOINT lowerneck
				{
					OFFSET -0.013390 0.211636 -0.033468
					CHANNELS 3 Zrotation Yrotation Xrotation
					JOINT upperneck
					{
						OFFSET 0.010113 0.088937 0.050410
						CHANNELS 3 Zrotation Yrotation Xrotation
						End Site
						{
							OFFSET 0.000000 0.000000 0.000000
						}
					}
				}
				JOINT lclavicle
				{
					OFFSET 0.071702 0.114000 -0.018898
					CHANNELS 3 Zrotation Yrotation Xrotation
					JOINT lshoulder
					{
						OFFSET 0.122921 0.045205 -0.019046
						CHANNELS 3 Zrotation Yrotation Xrotation
						JOINT lelbow
						{
							OFFSET 0.255332 -0.015649 -0.022946
							CHANNELS 3 Zrotation Yrotation Xrotation
							JOINT lwrist
							{
								OFFSET 0.265709 0.012698 -0.007375
								CHANNELS 3 Zrotation Yrotation Xrotation
								End Site
								{
									OFFSET 0.000000 0.000000 0.000000
								}
							}
						}
					}
				}
				JOINT rclavicle
				{
					OFFSET -0.082954 0.112472 -0.023707
					CHANNELS 3 Zrotation Yrotation Xrotation
					JOINT rshoulder
					{
						OFFSET -0.113228 0.046853 -0.008472
						CHANNELS 3 Zrotation Yrotation Xrotation
						JOINT relbow
						{
							OFFSET -0.260127 -0.014369 -0.031269
							CHANNELS 3 Zrotation Yrotation Xrotation
							JOINT rwrist
							{
								OFFSET -0.269108 0.006794 -0.006027
								CHANNELS 3 Zrotation Yrotation Xrotation
								End Site
								{
									OFFSET 0.000000 0.000000 0.000000
								}
							}
						}
					}
				}
			}
		}
	}
}
MOTION
Frames: 13
Frame Time: 0.033333
0.350306 0.279952 0.966880 96.461563 0.532277 83.606170 1.897568 4.886601 21.348039 -5.830380 -21.569263 11.079631 2.179970 3.959829 -17.017399 0.000000 -0.000000 0.000000 0.310849 -1.643659 -21.488203 0.678721 -7.526325 10.513156 8.782102 -9.050650 -6.548417 0.000000 -0.000000 0.000000 -0.779393 -6.472807 13.607836 2.373307 -1.920673 -3.913061 1.553433 -4.871254 1.482826 0.931750 6.856697 -8.021188 -3.883063 -0.424577 11.983463 -27.362973 1.416663 -0.952327 -49.143064 -14.856796 9.141468 6.928096 -35.822552 6.581095 1.586258 -3.508847 -0.626600 33.534027 -2.058728 -1.805194 50.248200 1.214254 13.894554 -11.852492 21.060540 -8.344805 5.607801 1.215783 -2.182209 
0.398576 0.275925 0.966532 97.281621 0.549663 83.442433 2.125674 3.825412 21.724044 -6.552312 -22.227184 16.309257 0.129794 4.287332 -14.653568 0.000000 -0.000000 0.000000 0.873750 -0.200689 -19.397130 0.476689 -6.774942 12.551447 8.306475 -8.140247 -3.444720 0.000000 -0.000000 0.000000 -0.921541 -6.842043 12.714819 2.533317 -2.229636 -3.403168 1.405776 -4.922265 1.479170 0.825957 6.479136 -7.782033 -3.794688 -0.031393 11.587719 -27.857958 1.787947 -0.804301 -49.130575 -14.382897 9.124268 7.192288 -36.000458 6.047326 0.900795 -3.609025 -0.999618 33.658036 -2.154304 -1.876215 50.159717 0.875406 13.992609 -11.573263 19.548542 -7.946467 6.209329 1.138781 -2.342943 
0.446190 0.271642 0.970142 97.014872 0.914527 83.936602 2.125313 2.919173 18.998710 -8.278931 -22.014987 25.283802 -2.439563 2.445817 -7.716524 0.000000 -0.000000 0.000000 1.758893 0.494300 -19.324542 0.973980 -3.793953 15.760742 5.423481 -8.741316 -0.535504 0.000000 -0.000000 0.000000 -0.338375 -6.633427 11.120927 2.815482 -1.914258 -3.002199 0.903887 -4.969809 1.165400 0.820441 5.967127 -7.492669 -3.926764 0.317916 12.343013 -28.912144 2.540519 -0.706622 -49.037525 -13.832033 9.503829 7.126798 -34.777638 6.221859 0.086263 -3.555113 -1.271905 33.994682 -2.844257 -1.979546 50.010600 1.028853 14.227288 -11.535744 17.931953 -8.511868 5.919295 -0.088240 -3.228452 
0.493692 0.267815 0.975983 95.869477 1.457943 83.392776 2.577415 2.611884 16.198502 -10.448041 -20.256778 34.216206 -6.567366 1.366807 2.100419 0.000000 -0.000000 0.000000 3.160229 1.833373 -16.907648 1.280470 -3.724108 18.222043 2.346276 -7.660711 -1.922383 0.000000 -0.000000 0.000000 0.325922 -6.305375 10.813529 2.970844 -1.506773 -2.647681 0.594877 -4.369793 0.898809 0.521043 5.509725 -6.618035 -3.539710 0.407902 11.687649 -29.287684 3.333199 -0.668921 -49.920194 -12.776445 9.743166 7.499450 -33.750973 6.452011 -1.242512 -3.401683 -1.329287 33.395523 -2.883074 -1.616536 50.635199 1.460756 13.582502 -11.476701 16.764278 -8.251072 6.267001 -0.320055 -4.389472 
0.538526 0.263991 0.980362 94.911129 1.549126 82.887166 2.645175 2.461985 11.595939 -12.175269 -16.555234 43.470591 -5.836388 -0.187869 13.159454 0.000000 -0.000000 0.000000 4.607738 1.480180 -13.344555 1.042201 -2.941076 18.021846 -1.076898 -7.008074 -3.378489 0.000000 -0.000000 0.000000 0.583610 -5.344639 11.020595 2.937051 -1.374849 -2.512470 0.305347 -3.987849 0.480593 0.458343 5.088389 -6.648794 -3.142752 0.885820 11.705000 -29.648690 3.875894 -0.178541 -50.179626 -11.729640 9.466303 7.524700 -33.031991 6.972671 -2.556803 -3.528049 -2.083846 33.129230 -2.571057 -1.390620 50.761678 1.354340 13.491344 -11.411639 17.171627 -8.246742 6.875568 0.228197 -5.274811 
0.580167 0.261229 0.984755 93.884295 1.469416 82.903127 2.358685 2.063822 6.224904 -11.757271 -11.365724 51.570377 -3.706388 3.504967 12.814559 0.000000 -0.000000 0.000000 5.407113 1.175559 -10.338806 1.221491 -1.597524 17.662054 -2.072418 -7.111118 -5.149361 0.000000 -0.000000 0.000000 0.585519 -4.050957 10.740823 2.922567 -1.413846 -2.536703 0.246973 -3.599958 0.752178 0.329838 4.063087 -7.326197 -2.881944 1.294014 11.940510 -30.330207 4.040734 -0.155730 -50.194666 -10.425999 9.019829 7.466920 -32.611353 5.642572 -2.498352 -2.725286 -2.797870 33.151863 -2.150187 -1.407292 50.023990 1.822999 13.941222 -10.856954 18.410161 -7.705427 6.916697 0.378731 -5.294811 
0.621781 0.258931 0.990002 91.938296 0.992251 82.175181 2.279791 2.724695 2.139988 -7.329645 -4.387103 55.290370 -0.196305 7.817577 7.518128 0.000000 -0.000000 0.000000 5.907660 0.735414 -6.396409 1.042355 0.434133 17.104293 -2.027413 -6.694250 -6.869897 0.000000 -0.000000 0.000000 0.305729 -2.459887 11.279534 2.538888 -1.064780 -3.021954 0.133675 -2.819212 1.373767 0.490924 3.417226 -7.157700 -2.799840 1.716687 11.991162 -30.258934 4.689440 -0.426022 -50.929239 -9.070918 8.480621 7.003998 -32.328965 6.697504 -2.858075 -1.266639 -2.960235 32.873385 -1.859105 -1.516421 49.931007 2.661540 14.330647 -10.385558 19.552654 -6.293794 6.023159 0.188285 -4.567156 
0.662057 0.257175 0.995145 90.299765 0.467307 81.841025 2.269955 3.001734 -1.754096 -4.441944 0.336998 56.891639 1.729713 9.828731 4.211071 0.000000 -0.000000 0.000000 6.026054 -0.044937 -2.186976 0.784491 2.379193 14.994823 -2.163786 -6.574457 -7.812234 0.000000 -0.000000 0.000000 0.250377 -0.933127 11.721190 2.072398 -0.905872 -3.707496 -0.076452 -2.077663 1.807053 0.528523 2.937725 -6.915615 -2.797049 1.924028 11.980492 -30.294884 5.550160 -0.662527 -51.389248 -7.658272 8.116489 6.433489 -31.635062 8.142680 -2.833974 -1.390294 -2.740966 32.221184 -1.671493 -1.818084 50.151305 3.804104 14.586019 -9.711242 20.068821 -5.054132 5.443948 0.229966 -4.414925 
0.700510 0.256306 0.998999 88.795416 -0.190439 81.704942 1.862785 2.760620 -5.603475 -3.682071 3.056436 56.139152 3.255761 10.715032 0.640008 0.000000 -0.000000 0.000000 5.351788 -0.860342 1.390586 0.834439 3.988430 13.288902 -1.850201 -6.120081 -8.986539 0.000000 -0.000000 0.000000 0.210819 0.581420 11.940527 1.558249 -0.720937 -4.118457 -0.359635 -1.582970 1.927530 0.360009 2.548756 -6.547066 -2.783140 1.865567 11.865457 -30.293180 5.898479 -0.464849 -51.679028 -6.215057 7.646891 6.294827 -30.395051 8.157285 -3.064984 -1.197883 -3.741913 31.631696 -1.000085 -1.616318 50.217056 5.039283 14.547193 -9.318593 20.776515 -4.698783 5.048549 0.141826 -4.624700 
0.737170 0.255727 1.001309 87.650999 -0.513698 81.790133 1.654760 2.762107 -9.488942 -3.931168 3.747118 53.134048 3.192064 10.609767 -2.419602 0.000000 -0.000000 0.000000 4.556980 -2.388763 4.711113 0.913484 5.329711 11.384206 -1.534717 -4.817415 -9.632067 0.000000 -0.000000 0.000000 0.613888 1.927247 12.322839 0.984497 -0.562320 -4.497214 -0.675569 -0.908339 1.995897 0.397175 2.618567 -6.676663 -2.857540 1.369716 12.052342 -30.492083 6.099668 -0.821281 -51.608996 -4.981398 7.427801 6.161377 -29.928838 8.151404 -2.845623 -1.803649 -3.003215 31.085990 -0.665913 -1.760674 50.159495 5.951742 14.394655 -9.288906 23.126238 -4.395295 4.397847 0.889291 -4.399683 
0.772550 0.256333 1.002236 86.418387 -0.728165 81.752324 1.613174 2.281523 -12.323166 -4.126754 4.229523 47.879359 2.631706 10.067990 -5.124389 0.000000 -0.000000 0.000000 3.825881 -3.030119 7.646123 1.102501 6.020329 10.348924 -0.659558 -4.295386 -11.004022 0.000000 -0.000000 0.000000 1.116862 3.109448 13.032561 0.465281 -0.188237 -4.863422 -0.883899 -0.183733 1.963933 0.370847 2.656278 -7.093681 -3.071772 0.672540 12.185513 -30.625391 6.338905 -1.294496 -51.778404 -3.840255 7.441040 5.928406 -28.874786 8.381856 -2.344166 -1.532167 -2.886622 30.500012 -0.148186 -1.804942 49.844251 6.854381 14.234049 -9.129845 24.510182 -4.566868 3.430899 1.692728 -4.748099 
0.807582 0.257570 1.000853 85.142751 -0.987931 82.079872 1.597099 1.396018 -14.539057 -4.002185 4.376145 39.947561 2.229669 10.664689 -6.505261 0.000000 -0.000000 0.000000 2.871093 -4.059838 9.827151 1.235269 7.292001 9.887839 -0.154826 -3.929367 -12.142474 0.000000 -0.000000 0.000000 1.413006 4.432243 13.328848 0.074334 0.028889 -4.790644 -0.917437 0.351114 1.772095 0.261350 2.836382 -7.493059 -3.235192 0.152807 11.777516 -30.682028 6.235933 -1.547842 -52.206164 -2.415897 7.549646 5.993053 -27.636395 7.893677 -1.961770 -0.784333 -3.585867 29.983081 0.398416 -1.593991 49.137342 8.024989 13.882888 -9.033217 26.829866 -5.072882 3.745524 0.816933 -4.814710 
0.842558 0.259478 0.997635 83.942564 -1.081186 82.790000 1.717747 0.603604 -15.981283 -3.497695 3.853795 30.109286 2.144266 11.017260 -6.221903 0.000000 -0.000000 0.000000 2.160609 -4.574673 11.431250 1.188768 8.569790 9.885364 0.156112 -3.600096 -13.531159 0.000000 -0.000000 0.000000 1.770079 5.451656 13.144209 -0.286941 0.480939 -4.844086 -1.043060 0.934950 1.719817 0.463922 3.470748 -7.693473 -3.414309 -0.337571 11.810166 -30.746012 6.764074 -2.081669 -52.511905 -1.664424 7.999400 6.121077 -26.590648 7.902663 -1.396594 -1.484313 -2.737714 29.379543 0.768410 -1.743877 48.792094 8.746196 14.392633 -9.091464 27.732698 -4.623777 2.849232 2.028154 -4.543523 
